<svg width="36" height="36" viewBox="0 0 36 36" fill="none" xmlns="http://www.w3.org/2000/svg">
<circle cx="18" cy="18" r="17.5" stroke="#2BA84A"/>
<g clip-path="url(#clip0_264_21347)">
<path d="M15.6655 8.8833H18.4707V9.93525H15.6655V8.8833Z" fill="#2BA84A"/>
<path d="M21.2734 17.8833C20.3972 17.8833 20.3972 16.9482 19.5209 16.9482C18.6446 16.9482 18.6446 17.8833 17.7683 17.8833C16.892 17.8833 16.8918 16.9482 16.0153 16.9482C15.1388 16.9482 15.1392 17.8833 14.2632 17.8833C13.3864 17.8833 13.3864 16.9482 12.5096 16.9482C11.6322 16.9482 11.6322 17.8833 10.7548 17.8833C9.8774 17.8833 9.8774 16.9482 9 16.9482V27.8184H22.6753V17.0111C22.1302 17.2188 22.0132 17.8833 21.2734 17.8833Z" fill="#2BA84A"/>
<path d="M24.7808 17.8833C24.0399 17.8833 23.9229 17.2185 23.3767 17.011V27.8184H26.5356V16.9482C25.6582 16.9482 25.6582 17.8833 24.7808 17.8833Z" fill="#2BA84A"/>
<path d="M14.2631 17.1819C14.3768 17.1819 14.4141 17.1637 14.6271 16.9362C14.7896 16.722 14.9995 16.5483 15.2403 16.4287C15.4811 16.3091 15.7463 16.2469 16.0151 16.2469C16.284 16.2469 16.5492 16.3091 16.79 16.4286C17.0308 16.5482 17.2407 16.7218 17.4032 16.936C17.6148 17.1619 17.6539 17.1815 17.7658 17.1817C17.6417 16.4588 17.6786 15.7175 17.8737 15.0105C18.109 14.043 18.6493 13.1769 19.4147 12.5402C19.064 12.1491 18.6179 11.8556 18.1199 11.6884V10.6365H16.016V11.6884C15.4034 11.8926 14.8705 12.2844 14.4929 12.8083C14.1153 13.3322 13.9121 13.9617 13.9121 14.6074V16.9507C14.1022 17.1525 14.147 17.1819 14.2631 17.1819Z" fill="#2BA84A"/>
<path d="M24.415 16.9359C24.6198 17.1544 24.6608 17.1819 24.7807 17.1819C24.9006 17.1819 24.942 17.1544 25.1471 16.9357C25.2188 16.8593 25.3023 16.7722 25.3992 16.686C25.7043 15.1236 25.1604 13.6959 24.1097 13.4144C23.7319 13.3223 23.3334 13.3715 22.9894 13.5529C23.0466 13.1958 23.2202 12.8676 23.4832 12.6193C23.616 12.5187 23.7689 12.4477 23.9314 12.4111C24.094 12.3745 24.2625 12.3731 24.4256 12.407C24.4716 12.4141 24.5186 12.4119 24.5637 12.4007C24.6089 12.3894 24.6514 12.3692 24.6887 12.3414C24.726 12.3135 24.7573 12.2785 24.781 12.2384C24.8046 12.1983 24.82 12.1539 24.8263 12.1078C24.8326 12.0617 24.8296 12.0147 24.8176 11.9698C24.8055 11.9248 24.7847 11.8827 24.7562 11.8459C24.7277 11.8091 24.6922 11.7783 24.6517 11.7553C24.6112 11.7324 24.5665 11.7177 24.5203 11.7122C24.2616 11.6642 23.9957 11.6719 23.7402 11.7348C23.4848 11.7977 23.2457 11.9143 23.0389 12.0769C22.6585 12.4187 22.4018 12.8767 22.3088 13.3795C22.1014 13.0451 21.7779 12.7991 21.4002 12.6886C20.2779 12.3878 19.0023 13.5088 18.5512 15.1922C18.4201 15.673 18.3707 16.1724 18.4052 16.6696C18.7099 16.3921 19.1089 16.241 19.5209 16.2469C19.7892 16.2501 20.0533 16.3138 20.2936 16.4331C20.5339 16.5525 20.7441 16.7244 20.9088 16.9362C21.1222 17.1638 21.1595 17.1819 21.2735 17.1819C21.3875 17.1819 21.4248 17.1638 21.6382 16.9362C21.8007 16.722 22.0107 16.5484 22.2515 16.4288C22.4923 16.3092 22.7576 16.247 23.0265 16.2469C23.2954 16.2469 23.5606 16.3091 23.8015 16.4286C24.0424 16.5481 24.2523 16.7217 24.4149 16.9359H24.415Z" fill="#2BA84A"/>
<path d="M10.3889 16.9358C10.5937 17.1542 10.6348 17.1818 10.7546 17.1818C10.8745 17.1818 10.9159 17.1542 11.121 16.9356C11.2859 16.7239 11.4963 16.552 11.7367 16.4328C11.9771 16.3135 12.2413 16.25 12.5096 16.2468C12.7514 16.2439 12.9908 16.2944 13.2109 16.3946V14.6074C13.213 13.9911 13.3665 13.3848 13.6578 12.8417C12.4983 9.87833 11.0554 7.93618 10.0445 8.20703C8.79142 8.54281 8.65947 12.1515 9.70466 16.3961C9.96629 16.5288 10.1989 16.7122 10.3889 16.9358ZM12.3319 12.9313C12.42 12.9611 12.4926 13.0247 12.5339 13.1081C12.5751 13.1914 12.5815 13.2877 12.5517 13.3758L11.7412 15.7709C11.7268 15.815 11.7039 15.8558 11.6736 15.891C11.6434 15.9262 11.6065 15.955 11.565 15.9758C11.5235 15.9966 11.4784 16.0089 11.4321 16.0121C11.3858 16.0154 11.3394 16.0094 11.2955 15.9945C11.2515 15.9797 11.211 15.9562 11.1762 15.9256C11.1413 15.895 11.1129 15.8577 11.0926 15.816C11.0723 15.7743 11.0604 15.729 11.0577 15.6827C11.055 15.6364 11.0615 15.5901 11.0769 15.5463L11.8874 13.1512C11.9173 13.0631 11.9808 12.9905 12.0642 12.9493C12.1475 12.9081 12.2438 12.9016 12.3319 12.9313V12.9313ZM10.2602 12.8487L11.0702 10.4536C11.1007 10.3665 11.1644 10.2949 11.2474 10.2544C11.3304 10.214 11.426 10.2079 11.5134 10.2374C11.6009 10.267 11.6731 10.3299 11.7145 10.4124C11.7559 10.4949 11.7631 10.5904 11.7345 10.6782L10.9247 13.0734C10.9103 13.1175 10.8873 13.1583 10.8571 13.1935C10.8269 13.2286 10.7899 13.2575 10.7485 13.2783C10.707 13.299 10.6619 13.3114 10.6156 13.3146C10.5693 13.3178 10.5229 13.3119 10.4789 13.297C10.435 13.2821 10.3945 13.2587 10.3596 13.2281C10.3248 13.1974 10.2964 13.1602 10.2761 13.1185C10.2558 13.0768 10.2439 13.0315 10.2412 12.9852C10.2385 12.9389 10.245 12.8926 10.2604 12.8488L10.2602 12.8487Z" fill="#2BA84A"/>
</g>
<defs>
<clipPath id="clip0_264_21347">
<rect width="19.6364" height="19.6364" fill="white" transform="translate(8.18188 8.18188)"/>
</clipPath>
</defs>
</svg>
